<?xml version="1.0" encoding="utf-8"?>
<!-- Generator: Adobe Illustrator 16.0.0, SVG Export Plug-In . SVG Version: 6.00 Build 0)  -->
<!DOCTYPE svg PUBLIC "-//W3C//DTD SVG 1.1//EN" "http://www.w3.org/Graphics/SVG/1.1/DTD/svg11.dtd">
<svg version="1.1" id="Layer_1" xmlns="http://www.w3.org/2000/svg" xmlns:xlink="http://www.w3.org/1999/xlink" x="0px" y="0px"
	 width="428.646px" height="241.403px" viewBox="0 0 428.646 241.403" enable-background="new 0 0 428.646 241.403"
	 xml:space="preserve">
<image overflow="visible" width="1750" height="978" xlink:href="Office 6.jpg"  transform="matrix(0.2476 0 0 0.2476 -3.6685 -0.3198)">
</image>
<g>
	<path fill="#6E91FF" d="M145.165,70.954c0,0-10.799-8.896-16.199-24.467c-5.4-15.568,10.298-18.432,16.199-18.414"/>
	<path fill="#6E91FF" d="M145.165,28.073c5.908-0.288,21.599,2.846,16.199,18.414c-5.4,15.57-16.199,24.467-16.199,24.467"/>
</g>
<g opacity="0.9">
	<path fill="#6E91FF" d="M292.321,167.884c0,0-10.799-8.897-16.2-24.467c-5.4-15.568,10.298-18.431,16.2-18.414"/>
	<path fill="#6E91FF" d="M292.321,125.003c5.907-0.287,21.599,2.846,16.199,18.414c-5.4,15.569-16.199,24.467-16.199,24.467"/>
</g>
<text transform="matrix(0.9932 0 0 1 139.7246 41.2861)"><tspan x="0" y="0" fill="#FFFFFF" font-family="'MyriadPro-Regular'" font-size="6.0216">YOU </tspan><tspan x="0.707" y="7.226" fill="#FFFFFF" font-family="'MyriadPro-Regular'" font-size="6.0216">ARE </tspan><tspan x="-0.256" y="14.452" fill="#FFFFFF" font-family="'MyriadPro-Regular'" font-size="6.0216">HERE</tspan></text>
<text transform="matrix(0.9932 0 0 1 283.1738 145.4141)" fill="#FFFFFF" font-family="'MyriadPro-Regular'" font-size="6.0216">Simcoe</text>
<image overflow="visible" width="1750" height="978" xlink:href="Office 3.jpg"  transform="matrix(0.19 0 0 0.19 24.8335 266.0674)">
</image>
</svg>
